<svg width="36" height="35" viewBox="0 0 36 35" fill="none" xmlns="http://www.w3.org/2000/svg">
<g clip-path="url(#clip0_1_3)">
<path d="M29.7843 3.57573H26.3336V1.85037C26.3336 1.39277 26.1518 0.953917 25.8283 0.630348C25.5047 0.306779 25.0658 0.125 24.6082 0.125C24.1507 0.125 23.7118 0.306779 23.3882 0.630348C23.0647 0.953917 22.8829 1.39277 22.8829 1.85037V3.57573H12.5307V1.85037C12.5307 1.39277 12.3489 0.953917 12.0253 0.630348C11.7018 0.306779 11.2629 0.125 10.8053 0.125C10.3477 0.125 9.90887 0.306779 9.5853 0.630348C9.26173 0.953917 9.07995 1.39277 9.07995 1.85037V3.57573H5.62922C4.25644 3.57573 2.93988 4.12107 1.96917 5.09178C0.998462 6.06248 0.453125 7.37904 0.453125 8.75183V29.4562C0.453125 30.829 0.998462 32.1456 1.96917 33.1163C2.93988 34.087 4.25644 34.6323 5.62922 34.6323H29.7843C31.1571 34.6323 32.4737 34.087 33.4444 33.1163C34.4151 32.1456 34.9604 30.829 34.9604 29.4562V8.75183C34.9604 7.37904 34.4151 6.06248 33.4444 5.09178C32.4737 4.12107 31.1571 3.57573 29.7843 3.57573ZM31.5097 29.4562C31.5097 29.9138 31.3279 30.3527 31.0044 30.6762C30.6808 30.9998 30.2419 31.1816 29.7843 31.1816H5.62922C5.17163 31.1816 4.73277 30.9998 4.40921 30.6762C4.08564 30.3527 3.90386 29.9138 3.90386 29.4562V17.3787H31.5097V29.4562ZM31.5097 13.9279H3.90386V8.75183C3.90386 8.29423 4.08564 7.85538 4.40921 7.53181C4.73277 7.20824 5.17163 7.02646 5.62922 7.02646H9.07995V8.75183C9.07995 9.20942 9.26173 9.64828 9.5853 9.97185C9.90887 10.2954 10.3477 10.4772 10.8053 10.4772C11.2629 10.4772 11.7018 10.2954 12.0253 9.97185C12.3489 9.64828 12.5307 9.20942 12.5307 8.75183V7.02646H22.8829V8.75183C22.8829 9.20942 23.0647 9.64828 23.3882 9.97185C23.7118 10.2954 24.1507 10.4772 24.6082 10.4772C25.0658 10.4772 25.5047 10.2954 25.8283 9.97185C26.1518 9.64828 26.3336 9.20942 26.3336 8.75183V7.02646H29.7843C30.2419 7.02646 30.6808 7.20824 31.0044 7.53181C31.3279 7.85538 31.5097 8.29423 31.5097 8.75183V13.9279Z" fill="#6E76E5"/>
</g>
<defs>
<clipPath id="clip0_1_3">
<rect width="35.7621" height="34.821" fill="white"/>
</clipPath>
</defs>
</svg>
