<svg width="24" height="24" viewBox="0 0 24 24" fill="none" xmlns="http://www.w3.org/2000/svg">
<circle cx="12" cy="12" r="12" fill="#6E76E5"/>
<g clip-path="url(#clip0_1621_2251)">
<path fill-rule="evenodd" clip-rule="evenodd" d="M11.875 6.5C11.6288 6.5 11.385 6.5485 11.1575 6.64273C10.93 6.73695 10.7233 6.87506 10.5492 7.04917C10.3751 7.22328 10.237 7.42998 10.1427 7.65747C10.0485 7.88495 10 8.12877 10 8.375C10 8.62123 10.0485 8.86505 10.1427 9.09253C10.237 9.32002 10.3751 9.52672 10.5492 9.70083C10.7233 9.87494 10.93 10.013 11.1575 10.1073C11.385 10.2015 11.6288 10.25 11.875 10.25C12.3723 10.25 12.8492 10.0525 13.2008 9.70083C13.5525 9.34919 13.75 8.87228 13.75 8.375C13.75 7.87772 13.5525 7.40081 13.2008 7.04917C12.8492 6.69754 12.3723 6.5 11.875 6.5ZM8.75 8.375C8.75 7.5462 9.07924 6.75134 9.66529 6.16529C10.2513 5.57924 11.0462 5.25 11.875 5.25C12.7038 5.25 13.4987 5.57924 14.0847 6.16529C14.6708 6.75134 15 7.5462 15 8.375C15 9.2038 14.6708 9.99866 14.0847 10.5847C13.4987 11.1708 12.7038 11.5 11.875 11.5C11.0462 11.5 10.2513 11.1708 9.66529 10.5847C9.07924 9.99866 8.75 9.2038 8.75 8.375ZM7.75813 15.0006C7.55625 15.2569 7.5 15.4506 7.5 15.5625C7.5 15.6388 7.52313 15.7194 7.65938 15.8288C7.815 15.9538 8.08562 16.0831 8.49937 16.1925C9.32312 16.4112 10.5069 16.5 11.875 16.5C12.0138 16.5 12.1508 16.499 12.2863 16.4969C12.452 16.4946 12.6119 16.5583 12.7307 16.674C12.8495 16.7896 12.9174 16.9477 12.9197 17.1134C12.9219 17.2792 12.8582 17.4391 12.7426 17.5578C12.627 17.6766 12.4689 17.7446 12.3031 17.7469C12.1615 17.749 12.0188 17.75 11.875 17.75C10.4819 17.75 9.16562 17.6625 8.17937 17.4012C7.68875 17.2712 7.22688 17.085 6.87688 16.8038C6.50625 16.5063 6.25 16.0906 6.25 15.5625C6.25 15.0706 6.47375 14.6106 6.7775 14.2256C7.08625 13.835 7.51313 13.4756 8.01375 13.1694C9.01562 12.5594 10.3781 12.125 11.875 12.125C12.1546 12.125 12.4288 12.1396 12.6975 12.1687C12.8623 12.1862 13.0135 12.2685 13.1177 12.3974C13.2219 12.5264 13.2706 12.6914 13.2531 12.8562C13.2356 13.0211 13.1534 13.1722 13.0244 13.2764C12.8955 13.3806 12.7305 13.4294 12.5656 13.4119C12.3402 13.3873 12.11 13.375 11.875 13.375C10.6106 13.375 9.47312 13.7437 8.665 14.2369C8.26062 14.4831 7.955 14.7506 7.75813 15.0006ZM18.5675 14.0425C18.6813 13.9246 18.7443 13.7667 18.7429 13.6029C18.7415 13.439 18.6758 13.2822 18.5599 13.1664C18.444 13.0505 18.2872 12.9848 18.1234 12.9833C17.9595 12.9819 17.8016 13.0449 17.6838 13.1588L15.695 15.1475L14.8112 14.2638C14.6934 14.1499 14.5355 14.0869 14.3716 14.0883C14.2078 14.0898 14.051 14.1555 13.9351 14.2714C13.8192 14.3872 13.7535 14.544 13.7521 14.7079C13.7507 14.8717 13.8137 15.0296 13.9275 15.1475L15.2087 16.4288C15.2726 16.4926 15.3484 16.5433 15.4318 16.5779C15.5153 16.6124 15.6047 16.6302 15.695 16.6302C15.7853 16.6302 15.8747 16.6124 15.9582 16.5779C16.0416 16.5433 16.1174 16.4926 16.1812 16.4288L18.5675 14.0425Z" fill="white"/>
</g>
<defs>
<clipPath id="clip0_1621_2251">
<rect width="15" height="15" fill="white" transform="translate(5 4)"/>
</clipPath>
</defs>
</svg>
