<svg width="24" height="24" viewBox="0 0 24 24" fill="none" xmlns="http://www.w3.org/2000/svg">
<circle cx="12" cy="12" r="12" fill="#6E76E5"/>
<path d="M14.842 13.066C14.3683 13.066 13.8552 12.9871 13.4209 12.8292H13.3025C13.1841 12.8292 13.1052 12.8687 13.0262 12.9476L12.1578 13.816C11.0525 13.2239 10.1052 12.316 9.55252 11.2108L10.4209 10.3424C10.5394 10.2239 10.5788 10.066 10.4999 9.94763C10.3815 9.51341 10.3025 9.00026 10.3025 8.52657C10.3025 8.3292 10.1052 8.13184 9.90779 8.13184H8.52621C8.32884 8.13184 8.13147 8.3292 8.13147 8.52657C8.13147 12.2371 11.1315 15.2371 14.842 15.2371C15.0394 15.2371 15.2367 15.0397 15.2367 14.8424V13.4608C15.2367 13.2634 15.0394 13.066 14.842 13.066ZM8.92094 8.92131H9.51305C9.55252 9.27657 9.63147 9.63184 9.71042 9.94763L9.23673 10.4213C9.07884 9.94763 8.96042 9.43447 8.92094 8.92131ZM14.4473 14.4476C13.9341 14.4082 13.4209 14.2897 12.9473 14.1318L13.4209 13.6582C13.7367 13.7371 14.092 13.816 14.4473 13.816V14.4476ZM12.8683 8.52657C12.8683 8.76341 12.7104 8.92131 12.4736 8.92131C12.2367 8.92131 12.0788 8.76341 12.0788 8.52657C12.0788 8.28973 12.2367 8.13184 12.4736 8.13184C12.7104 8.13184 12.8683 8.28973 12.8683 8.52657ZM14.0525 8.52657C14.0525 8.76341 13.8946 8.92131 13.6578 8.92131C13.4209 8.92131 13.263 8.76341 13.263 8.52657C13.263 8.28973 13.4209 8.13184 13.6578 8.13184C13.8946 8.13184 14.0525 8.28973 14.0525 8.52657ZM15.2367 8.52657C15.2367 8.76341 15.0788 8.92131 14.842 8.92131C14.6052 8.92131 14.4473 8.76341 14.4473 8.52657C14.4473 8.28973 14.6052 8.13184 14.842 8.13184C15.0788 8.13184 15.2367 8.28973 15.2367 8.52657ZM12.8683 9.71078C12.8683 9.94763 12.7104 10.1055 12.4736 10.1055C12.2367 10.1055 12.0788 9.94763 12.0788 9.71078C12.0788 9.47394 12.2367 9.31605 12.4736 9.31605C12.7104 9.31605 12.8683 9.47394 12.8683 9.71078ZM14.0525 9.71078C14.0525 9.94763 13.8946 10.1055 13.6578 10.1055C13.4209 10.1055 13.263 9.94763 13.263 9.71078C13.263 9.47394 13.4209 9.31605 13.6578 9.31605C13.8946 9.31605 14.0525 9.47394 14.0525 9.71078ZM15.2367 9.71078C15.2367 9.94763 15.0788 10.1055 14.842 10.1055C14.6052 10.1055 14.4473 9.94763 14.4473 9.71078C14.4473 9.47394 14.6052 9.31605 14.842 9.31605C15.0788 9.31605 15.2367 9.47394 15.2367 9.71078ZM12.8683 10.895C12.8683 11.1318 12.7104 11.2897 12.4736 11.2897C12.2367 11.2897 12.0788 11.1318 12.0788 10.895C12.0788 10.6582 12.2367 10.5003 12.4736 10.5003C12.7104 10.5003 12.8683 10.6582 12.8683 10.895ZM14.0525 10.895C14.0525 11.1318 13.8946 11.2897 13.6578 11.2897C13.4209 11.2897 13.263 11.1318 13.263 10.895C13.263 10.6582 13.4209 10.5003 13.6578 10.5003C13.8946 10.5003 14.0525 10.6582 14.0525 10.895ZM15.2367 10.895C15.2367 11.1318 15.0788 11.2897 14.842 11.2897C14.6052 11.2897 14.4473 11.1318 14.4473 10.895C14.4473 10.6582 14.6052 10.5003 14.842 10.5003C15.0788 10.5003 15.2367 10.6582 15.2367 10.895Z" fill="white"/>
</svg>
