<svg width="32" height="32" viewBox="0 0 32 32" fill="none" xmlns="http://www.w3.org/2000/svg">
<circle cx="16" cy="16" r="16" fill="#6E76E5"/>
<path d="M15.5 17.375C16.5355 17.375 17.375 16.5355 17.375 15.5C17.375 14.4645 16.5355 13.625 15.5 13.625C14.4645 13.625 13.625 14.4645 13.625 15.5C13.625 16.5355 14.4645 17.375 15.5 17.375Z" fill="white"/>
<path d="M22.5032 15.3406C21.9518 13.9145 20.9947 12.6812 19.7501 11.7932C18.5055 10.9051 17.0279 10.4012 15.5 10.3438C13.9722 10.4012 12.4946 10.9051 11.25 11.7932C10.0054 12.6812 9.04825 13.9145 8.49692 15.3406C8.45969 15.4436 8.45969 15.5564 8.49692 15.6594C9.04825 17.0855 10.0054 18.3188 11.25 19.2068C12.4946 20.0949 13.9722 20.5988 15.5 20.6562C17.0279 20.5988 18.5055 20.0949 19.7501 19.2068C20.9947 18.3188 21.9518 17.0855 22.5032 15.6594C22.5404 15.5564 22.5404 15.4436 22.5032 15.3406ZM15.5 18.5469C14.8974 18.5469 14.3083 18.3682 13.8073 18.0334C13.3062 17.6986 12.9157 17.2227 12.6851 16.666C12.4545 16.1092 12.3942 15.4966 12.5117 14.9056C12.6293 14.3145 12.9195 13.7716 13.3456 13.3455C13.7717 12.9194 14.3146 12.6292 14.9056 12.5117C15.4967 12.3941 16.1093 12.4544 16.666 12.6851C17.2228 12.9157 17.6986 13.3062 18.0334 13.8072C18.3682 14.3083 18.5469 14.8974 18.5469 15.5C18.5457 16.3077 18.2243 17.082 17.6531 17.6531C17.082 18.2242 16.3077 18.5456 15.5 18.5469Z" fill="white"/>
</svg>
