<svg width="42" height="37" viewBox="0 0 42 37" fill="none" xmlns="http://www.w3.org/2000/svg">
<path d="M10.8142 30.4402C11.0581 30.4402 11.3039 30.4176 11.5447 30.3731C12.5456 30.1883 13.4107 29.6437 13.981 28.8396C14.5511 28.0356 14.758 27.0685 14.5637 26.1162C14.4606 25.612 14.2495 25.1492 13.9571 24.7468L18.0123 20.2952C18.5888 20.6245 19.2599 20.8127 19.969 20.8127C20.2129 20.8127 20.4587 20.7901 20.6997 20.7456C21.7003 20.5608 22.5654 20.0161 23.1356 19.2121C23.6099 18.543 23.8318 17.761 23.7811 16.9687L29.9588 14.6026C30.6548 15.2624 31.6115 15.6637 32.6487 15.6637C32.8927 15.6637 33.1386 15.6411 33.3797 15.5966C35.4453 15.2147 36.7991 13.3051 36.398 11.3401C36.2657 10.6908 35.9548 10.1099 35.5203 9.63885L38.3113 3.74473L39.0774 5.37216C39.2445 5.72711 39.611 5.93766 39.9949 5.93766C40.132 5.93766 40.2716 5.91077 40.4049 5.85392C40.9113 5.63815 41.138 5.07264 40.9111 4.59088L39.12 0.785809C39.0111 0.554484 38.8101 0.373758 38.561 0.283395C38.3123 0.193159 38.0355 0.200551 37.7924 0.304169L33.794 2.00833C33.2877 2.2241 33.061 2.78973 33.288 3.2715C33.5147 3.75339 34.1092 3.96891 34.6156 3.75301L36.4799 2.95835L33.8204 8.57476C33.4514 8.46133 33.0594 8.40028 32.6553 8.40028C32.4114 8.40028 32.1654 8.42297 31.9243 8.46745C29.8591 8.84929 28.5049 10.7589 28.9055 12.7246C28.9195 12.7929 28.9362 12.8601 28.9539 12.9269L23.1371 15.1547C22.4448 14.1775 21.273 13.5495 19.9751 13.5495C19.7313 13.5495 19.4854 13.5721 19.2444 13.6166C17.1787 13.9982 15.8244 15.9078 16.2255 17.8735C16.301 18.2435 16.4347 18.5914 16.616 18.9094L12.4212 23.514C11.9313 23.2972 11.3877 23.177 10.8203 23.177C10.5765 23.177 10.3309 23.1996 10.0897 23.2441C9.08897 23.429 8.2239 23.9737 7.65379 24.7777C7.08369 25.5818 6.87673 26.5489 7.07123 27.5012C7.41911 29.2042 8.9932 30.4402 10.8142 30.4402ZM32.3077 10.3437C32.4226 10.3224 32.5397 10.3115 32.6554 10.3115C33.5166 10.3115 34.261 10.8971 34.4255 11.7041C34.6156 12.6347 33.9745 13.5389 32.9965 13.7196C32.8815 13.7409 32.7645 13.7517 32.6487 13.7517C31.7874 13.7517 31.0428 13.1662 30.8781 12.3598C30.6883 11.4289 31.3297 10.5245 32.3077 10.3437ZM19.6275 15.4931C19.7424 15.4718 19.8595 15.461 19.9751 15.461C20.8364 15.461 21.5808 16.0465 21.7454 16.8533C21.8376 17.3042 21.7397 17.7621 21.4696 18.1428C21.1997 18.5234 20.7904 18.7813 20.3164 18.8688C20.2015 18.8901 20.0844 18.9008 19.9688 18.9008C19.1074 18.9008 18.3626 18.3153 18.1978 17.5089C18.0081 16.578 18.6494 15.6738 19.6275 15.4931ZM9.31937 25.8468C9.58929 25.4662 9.99892 25.2082 10.4727 25.1207C10.5876 25.0995 10.7045 25.0887 10.8202 25.0887C11.6815 25.0887 12.4262 25.6742 12.5911 26.4807C12.6831 26.9316 12.585 27.3897 12.315 27.7704C12.0451 28.1509 11.6356 28.4089 11.1616 28.4963C11.0467 28.5176 10.9296 28.5285 10.814 28.5285C9.95284 28.5285 9.20832 27.9429 9.04356 27.1364C8.95154 26.6855 9.04959 26.2274 9.31937 25.8468Z" fill="#37C61F"/>
<path d="M39.932 32.3907H4.64349V2.79376C4.64349 2.26573 4.19381 1.83788 3.63884 1.83788C3.084 1.83788 2.63419 2.26573 2.63419 2.79376V32.3907H1.48098C0.926011 32.3907 0.476329 32.8187 0.476329 33.3466C0.476329 33.8746 0.926011 34.3025 1.48098 34.3025H2.63419V35.0269C2.63419 35.555 3.084 35.9828 3.63884 35.9828C4.19381 35.9828 4.64349 35.555 4.64349 35.0269V34.3025H39.932C40.4869 34.3025 40.9366 33.8746 40.9366 33.3466C40.9366 32.8186 40.4868 32.3907 39.932 32.3907Z" fill="#37C61F"/>
</svg>
